<svg id="visual" viewBox="0 0 960 540" width="960" height="540" xmlns="http://www.w3.org/2000/svg" xmlns:xlink="http://www.w3.org/1999/xlink" version="1.1"><rect x="0" y="0" width="960" height="540" fill="#FCF6D8"></rect><path d="M0 346L40 357.2C80 368.3 160 390.7 240 390.8C320 391 400 369 480 359.2C560 349.3 640 351.7 720 355.3C800 359 880 364 920 366.5L960 369L960 541L920 541C880 541 800 541 720 541C640 541 560 541 480 541C400 541 320 541 240 541C160 541 80 541 40 541L0 541Z" fill="#EAB7B6" stroke-linecap="round" stroke-linejoin="miter"></path></svg>